# xmcd
#
# Track frame offsets: 
#        150
#        14980
#        31495
#        45867
#        63577
#        88060
#        104365
#        118667
#        135645
#
# Disc length: 2252 seconds
#
# Revision: 3
# Processed by: cddbd v1.5PL3 Copyright (c) Steve Scherf et al.
# Submitted via: ExactAudioCopy v0.90b4
#
DISCID=7a08ca09
DTITLE=The Charlie Daniels Band - Million Mile Reflections
DYEAR=1979
DGENRE=Country
TTITLE0=Passing Lane
TTITLE1=Blue Star
TTITLE2=Jitterbug
TTITLE3=Behind Your Eyes
TTITLE4=Reflections
TTITLE5=The Devil Went Down To Georgia
TTITLE6=Mississippi
TTITLE7=Blind Man
TTITLE8=Rainbow Ride
EXTD=
EXTT0=
EXTT1=
EXTT2=
EXTT3=
EXTT4=
EXTT5=
EXTT6=
EXTT7=
EXTT8=
PLAYORDER=
